<?xml version="1.0" encoding="UTF-8" standalone="no"?>
<svg
   xmlns:dc="http://purl.org/dc/elements/1.1/"
   xmlns:cc="http://creativecommons.org/ns#"
   xmlns:rdf="http://www.w3.org/1999/02/22-rdf-syntax-ns#"
   xmlns:svg="http://www.w3.org/2000/svg"
   xmlns="http://www.w3.org/2000/svg"
   viewBox="0 0 1496 1496"
   height="1496"
   width="1496"
   xml:space="preserve"
   id="svg2"
   version="1.1"><metadata
     id="metadata8"><rdf:RDF><cc:Work
         rdf:about=""><dc:format>image/svg+xml</dc:format><dc:type
           rdf:resource="http://purl.org/dc/dcmitype/StillImage" /></cc:Work></rdf:RDF></metadata><defs
     id="defs6" /><g
     transform="matrix(1.3333333,0,0,-1.3333333,0,1496)"
     id="g10"><g
       transform="scale(0.1)"
       id="g12"><path
         id="path14"
         style="fill:#ffffff;fill-opacity:1;fill-rule:nonzero;stroke:none"
         d="M 11220,0 H 0 V 11220 H 11220 V 0" /><path
         id="path16"
         style="fill:#616e7d;fill-opacity:1;fill-rule:nonzero;stroke:none"
         d="m 5181.53,4441.21 18.27,-1.59 h 820.42 l 18.28,1.59 230.64,-583.64 H 4950.88 Z m 428.48,1083.49 311.56,-787.86 h -623.12 z m -258.73,774.67 c 0,142.88 115.84,258.69 258.73,258.69 142.89,0 258.66,-115.81 258.66,-258.69 0,-142.9 -115.77,-258.67 -258.66,-258.67 -142.89,0 -258.73,115.77 -258.73,258.67 z M 4345.07,2803.93 c 18.52,-4.89 37.4,-7.41 55.8,-7.41 75.71,0 146.22,39.82 170.91,102.62 l 261.51,661.19 h 1553.38 l 261.57,-661.19 c 30.81,-78.07 132.48,-120.56 226.71,-95.21 94.42,25.49 145.86,109.52 115.05,187.4 L 5863.65,5840.07 c 157.05,88.72 263.26,256.91 263.26,450.19 0,285.44 -231.48,516.9 -516.9,516.9 -285.47,0 -516.9,-231.46 -516.9,-516.9 0,-193.28 106.21,-361.47 263.38,-450.19 L 4230.02,2991.33 c -30.87,-77.88 20.63,-161.91 115.05,-187.4" /><path
         id="path18"
         style="fill:#616e7d;fill-opacity:1;fill-rule:nonzero;stroke:none"
         d="m 6789.2,4886.67 c -80.86,-68.61 -168.19,-130.45 -259.76,-184.12 -19.55,-11.34 -28.2,-35.09 -20.46,-56.33 l 77.53,-214.64 c 4.6,-13.07 14.83,-23.27 27.72,-28.15 12.89,-4.8 27.35,-3.78 39.52,2.97 94.83,53.05 187.67,114.87 275.67,183.57 524.47,410.78 825.14,1026.32 825.14,1688.94 0,1182.69 -962.04,2144.58 -2144.55,2144.58 -81.04,0 -163.34,-4.58 -244.87,-13.6 -986.72,-109.93 -1780.27,-906.6 -1886.97,-1893.99 -80.37,-744.76 223.32,-1464.65 812.43,-1925.7 87.94,-68.93 180.65,-130.61 275.86,-183.8 7.07,-3.93 14.95,-5.98 22.81,-5.98 l 16.52,3.01 c 12.89,4.88 23.12,15.08 27.84,28.15 l 77.41,214.64 c 7.69,21.24 -0.91,44.99 -20.46,56.33 -91.57,53.67 -178.9,115.51 -259.81,184.12 -426.43,361.91 -661.8,888.89 -645.76,1445.92 27.24,948.5 790.71,1725.83 1737.97,1770.04 1047.19,51.47 1912.82,-788.01 1912.82,-1823.72 0,-536.09 -235.61,-1043.56 -646.6,-1392.24" /><path
         id="path20"
         style="fill:#82bfab;fill-opacity:1;fill-rule:nonzero;stroke:none"
         d="m 6224.6,5526.76 c -15.37,-12.59 -21.19,-33.5 -14.47,-52.23 l 79.95,-221.39 c 4.9,-13.86 16.22,-24.57 30.2,-28.98 l 14.04,-2.07 c 9.74,0 19.3,3.03 27.35,8.84 97.08,69.72 184.11,152.64 258.37,245.96 183.62,230.52 280.57,507.95 280.57,802.02 0,607.56 -431.45,1138.63 -1025.76,1263.24 -173.76,36.68 -355.81,36.68 -529.68,0 -594.31,-124.61 -1025.76,-655.68 -1025.76,-1263.24 0,-294.07 97.07,-571.35 280.69,-802.02 74.26,-93.32 161.11,-176.24 258.24,-245.96 11.93,-8.47 27.36,-11.01 41.34,-6.77 14.16,4.41 25.36,15.12 30.38,28.98 l 79.76,221.39 c 6.78,18.73 0.98,39.64 -14.27,52.23 -90,73.95 -165.53,162.25 -224.42,262.78 -87.02,148.39 -132.96,317.54 -132.96,489.37 0,406.46 256.79,773.38 639.04,913.13 213.39,78.04 452.39,78.04 665.6,0 382.19,-139.75 638.98,-506.67 638.98,-913.13 0,-171.83 -45.93,-341.12 -132.78,-489.52 -59.01,-100.7 -134.54,-189.03 -224.41,-262.63" /><path
         id="path22"
         style="fill:#aad4c8;fill-opacity:1;fill-rule:nonzero;stroke:none"
         d="m 5351.28,6299.37 c 0,-142.9 115.84,-258.67 258.73,-258.67 142.89,0 258.66,115.77 258.66,258.67 0,142.88 -115.77,258.69 -258.66,258.69 -142.89,0 -258.73,-115.81 -258.73,-258.69" /></g></g></svg>